<svg xmlns="http://www.w3.org/2000/svg" width="727.596" height="380.402" viewBox="0 0 727.596 380.402">
  <g id="Group_50" data-name="Group 50" transform="translate(0.13)">
    <ellipse id="Ellipse_71" data-name="Ellipse 71" cx="357.074" cy="22.738" rx="357.074" ry="22.738" transform="translate(8.897 334.926)" fill="#f2f2f2"/>
    <path id="Path_403" data-name="Path 403" d="M535.777,324.894c-58.177,0-99.948,35.9-99.948,119.674,0,94.941,41.771,120.073,99.948,120.073s102.436-27.525,102.436-120.073C638.212,345.638,593.954,324.894,535.777,324.894Zm.382,208.232c-40.295,0-61.346-22.739-61.346-88.5,0-58.022,21.913-88.62,62.208-88.62s62.208,20.1,62.208,88.62c0,64.1-22.776,88.5-63.07,88.5Z" transform="translate(-183.491 -216.151)" fill="#a5d1f3"/>
    <path id="Path_404" data-name="Path 404" d="M298.261,503.469H274.208V435.337a13.923,13.923,0,0,0-14.186-13.645h-5.636A13.923,13.923,0,0,0,240.2,435.337v68.132H172.353a8.17,8.17,0,0,1-6.936-3.769,7.532,7.532,0,0,1-.224-7.66L237,361.309a13.177,13.177,0,0,0,.915-10.689,13.835,13.835,0,0,0-7.4-8.023l-4.239-1.926a14.462,14.462,0,0,0-18.567,5.906L120.13,504.168a17.943,17.943,0,0,0-2.272,8.722h0c0,10.218,8.612,18.5,19.235,18.5H240.2v43.083c0,9.033,7.613,16.355,17,16.355h0c9.391,0,17-7.323,17-16.355V531.393h24.054c8.017,0,14.515-6.251,14.515-13.962h0c0-7.711-6.5-13.962-14.515-13.962Z" transform="translate(-80.76 -221.199)" fill="#5893d4"/>
    <path id="Path_405" data-name="Path 405" d="M956.257,503.469H932.2V435.337a13.923,13.923,0,0,0-14.184-13.645h-5.636A13.923,13.923,0,0,0,898.2,435.337v68.132H830.35a8.17,8.17,0,0,1-6.936-3.769,7.532,7.532,0,0,1-.224-7.66L895,361.309a13.177,13.177,0,0,0,.915-10.689,13.835,13.835,0,0,0-7.4-8.023l-4.239-1.926a14.462,14.462,0,0,0-18.567,5.906L778.127,504.168a17.944,17.944,0,0,0-2.272,8.722h0c0,10.218,8.612,18.5,19.235,18.5H898.2v43.083c0,9.033,7.613,16.355,17,16.355h0c9.391,0,17-7.323,17-16.355V531.393h24.054c8.017,0,14.515-6.251,14.515-13.962h0c0-7.711-6.5-13.962-14.516-13.962Z" transform="translate(-293.347 -221.199)" fill="#5893d4"/>
    <path id="Path_406" data-name="Path 406" d="M308.064,491.216H284.011V423.084a13.923,13.923,0,0,0-14.185-13.645h-5.636A13.923,13.923,0,0,0,250,423.084v68.132H182.156a8.17,8.17,0,0,1-6.936-3.769,7.533,7.533,0,0,1-.224-7.66L246.8,349.056a13.178,13.178,0,0,0,.915-10.689,13.835,13.835,0,0,0-7.4-8.023l-4.239-1.925a14.461,14.461,0,0,0-18.567,5.906l-87.58,157.591a17.943,17.943,0,0,0-2.272,8.722h0c0,10.218,8.612,18.5,19.235,18.5H250v43.083c0,9.033,7.613,16.355,17,16.355h0c9.391,0,17-7.323,17-16.355V519.14h24.054c8.017,0,14.515-6.251,14.515-13.962h0c0-7.711-6.5-13.961-14.515-13.962Z" transform="translate(-83.927 -216.924)" fill="none" stroke="#3f3d56" stroke-miterlimit="10" stroke-width="1"/>
    <path id="Path_407" data-name="Path 407" d="M974.637,491.216H950.583V423.084A13.923,13.923,0,0,0,936.4,409.439h-5.635a13.923,13.923,0,0,0-14.185,13.645v68.132H848.729a8.17,8.17,0,0,1-6.936-3.769,7.532,7.532,0,0,1-.224-7.66l71.809-130.731a13.178,13.178,0,0,0,.915-10.689,13.835,13.835,0,0,0-7.4-8.023l-4.239-1.925a14.461,14.461,0,0,0-18.567,5.906L796.506,491.915a17.944,17.944,0,0,0-2.272,8.722h0c0,10.218,8.612,18.5,19.235,18.5H916.577v43.083c0,9.033,7.613,16.355,17,16.355h0c9.391,0,17-7.323,17-16.355V519.14h24.054c8.016,0,14.515-6.251,14.515-13.962h0c0-7.711-6.5-13.962-14.516-13.962Z" transform="translate(-299.285 -216.924)" fill="none" stroke="#3f3d56" stroke-miterlimit="10" stroke-width="1"/>
    <path id="Path_408" data-name="Path 408" d="M555.382,313.866c-58.177,0-99.948,35.9-99.948,119.674,0,94.941,41.771,120.073,99.948,120.073S657.818,526.088,657.818,433.54C657.818,334.61,613.559,313.866,555.382,313.866Zm.382,208.232c-40.295,0-61.346-22.739-61.346-88.5,0-58.022,21.913-88.62,62.208-88.62s62.208,20.1,62.208,88.62c0,64.1-22.775,88.5-63.07,88.5Z" transform="translate(-189.825 -212.304)" fill="none" stroke="#3f3d56" stroke-miterlimit="10" stroke-width="1"/>
    <ellipse id="Ellipse_72" data-name="Ellipse 72" cx="8.733" cy="8.4" rx="8.733" ry="8.4" transform="translate(310.191 3.483)" fill="#2f2e41"/>
    <ellipse id="Ellipse_73" data-name="Ellipse 73" cx="24.495" cy="30.527" rx="24.495" ry="30.527" transform="translate(315.729 0)" fill="#2f2e41"/>
    <path id="Path_409" data-name="Path 409" d="M553.97,223.607c-12.271,0-22.434-11.245-24.217-25.918a38.2,38.2,0,0,0-.278,4.61c0,16.86,10.967,30.527,24.5,30.527s24.5-13.668,24.5-30.527a38.216,38.216,0,0,0-.278-4.61C576.4,212.362,566.241,223.607,553.97,223.607Z" transform="translate(-213.746 -171.772)" opacity="0.1"/>
    <path id="Path_410" data-name="Path 410" d="M621.605,337.533c-.526,2.079-2.794,3.745-5.306,4.908-5.281,2.446-11.8,3.176-18.114,3.421a31.79,31.79,0,0,1-4.836-.086,14.151,14.151,0,0,1-8.293-3.667,1.073,1.073,0,0,1,.03-1.852c3.364-3.554,8.977-5.734,14.632-7.3,4.288-1.19,11.766-4.272,16.442-3.856C620.69,329.5,622.269,334.908,621.605,337.533Z" transform="translate(-231.537 -217.605)" fill="#3f3d56"/>
    <path id="Path_411" data-name="Path 411" d="M621.605,337.533c-.526,2.079-2.794,3.745-5.306,4.908-5.281,2.446-11.8,3.176-18.114,3.421a31.79,31.79,0,0,1-4.836-.086,14.151,14.151,0,0,1-8.293-3.667,1.073,1.073,0,0,1,.03-1.852c3.364-3.554,8.977-5.734,14.632-7.3,4.288-1.19,11.766-4.272,16.442-3.856C620.69,329.5,622.269,334.908,621.605,337.533Z" transform="translate(-231.537 -217.605)" opacity="0.1"/>
    <path id="Path_412" data-name="Path 412" d="M539.4,300.012a12.429,12.429,0,0,0-.811,9.815,17.175,17.175,0,0,0,5.977,8.137c6.833,5.269,16.238,5.994,24.995,5.92a200.207,200.207,0,0,0,22.951-1.513,28.355,28.355,0,0,0,7.447-1.663,11.2,11.2,0,0,0,6.387-6.2,7.364,7.364,0,0,0-2.121-8.187c-2.123-1.66-5.052-1.888-7.783-2.046l-15.628-.9c1.544-1.5,3.6-2.353,5.48-3.446,2.495-1.45,4.152-3.884,5.966-6.078a85.6,85.6,0,0,1,9.1-9c.509,2.807,2.354,5.111,4.527,7.048s4.676,3.5,6.934,5.339c5.469,4.466,9.406,10.527,15.158,14.65a30.142,30.142,0,0,0,10.864-5.217l-2.235-3.895a2.586,2.586,0,0,0-.842-1.011c-.633-.374-1.448-.181-2.183-.287-1.964-.283-2.821-2.464-3.592-4.224-2.115-4.832-6.165-8.582-9.624-12.634a63.744,63.744,0,0,1-6.766-9.586,32.628,32.628,0,0,0-3.8-5.862,8.687,8.687,0,0,0-6.186-3.113,12.211,12.211,0,0,0-5.9,2.073,156.459,156.459,0,0,0-16,10.482c-2.67,1.994-5.323,4.1-8.454,5.322-1.318.515-2.708.866-3.973,1.493-2.216,1.1-3.9,2.952-5.707,4.6A38.689,38.689,0,0,1,539.4,300.012Z" transform="translate(-216.48 -195.624)" fill="#3f3d56"/>
    <path id="Path_413" data-name="Path 413" d="M578.773,239.655a14.978,14.978,0,0,1-1.174,5.231,6.689,6.689,0,0,1-3.9,3.628,8.7,8.7,0,0,1-3.806.119,7.563,7.563,0,0,1-3.1-1.016,6.3,6.3,0,0,1-2.462-4.391c-.266-1.69-.147-3.417-.317-5.12a27.023,27.023,0,0,0-.814-4.073c-.115-.445-.232-.887-.347-1.33s-.224-.885-.326-1.328c-.094-.416-.181-.834-.256-1.254-.062-.354-.117-.711-.158-1.069a11.578,11.578,0,0,0-.547-3.133,9.44,9.44,0,0,0-1.142-1.858c-.194-.266-.381-.533-.554-.809a3.724,3.724,0,0,1-.658-2.44,2.065,2.065,0,0,1,.1-.391c.017-.049.036-.1.058-.145a1.2,1.2,0,0,0,.833-.748,2.155,2.155,0,0,0-.1-1.158,7.216,7.216,0,0,0-.65-1.49c-.179-.311-.786-.873-.79-1.229-.008-.717,1.448-1.295,2.038-1.578a11.754,11.754,0,0,1,5.819-1.135,4.362,4.362,0,0,1,3.4,1.5c.639.936.554,2.149.826,3.237a.94.94,0,0,0,.2.432.925.925,0,0,0,.5.221,3.2,3.2,0,0,0,.958.037h0a2.056,2.056,0,0,0,.251-.035,3.425,3.425,0,0,0,1.376-.572q.4-.1.8-.166a.176.176,0,0,0,.032-.006c1.067,3.239,1.206,6.712,2.079,10.011a24.858,24.858,0,0,1,1.14,4.95c.006.074.009.15.011.225.013.543-.032,1.09-.008,1.631a4.381,4.381,0,0,0,.085.725,9.868,9.868,0,0,0,.356,1.135l.006.018c.04.119.079.24.111.361.023.088.045.174.062.262l0,.006A9.362,9.362,0,0,1,578.773,239.655Z" transform="translate(-223.174 -177.084)" fill="#fbbebe"/>
    <ellipse id="Ellipse_74" data-name="Ellipse 74" cx="12.567" cy="12.088" rx="12.567" ry="12.088" transform="translate(328.083 17.21)" fill="#fbbebe"/>
    <path id="Path_414" data-name="Path 414" d="M649.361,274.7a19.366,19.366,0,0,0-3.544-9.183q.489,2.8.98,5.591a2.228,2.228,0,0,1-2.279-.674,6.654,6.654,0,0,1-1.2-2.133,43.481,43.481,0,0,0-5.557-9.595c-8-.641-15.909-3.831-22.944-7.55s-13.624-8.173-20.567-12.047a29.958,29.958,0,0,0-3.753-1.844c-2.173-.838-4.611-1.272-6.671-2.258-.138-.066-.277-.135-.413-.207a8.547,8.547,0,0,1-1.316-.85,6.91,6.91,0,0,1-.63-.557,13.158,13.158,0,0,1-2.409-3.876c-1.105-2.352-1.5-5.19-2.6-7.542a7.59,7.59,0,0,1,1.693-1.149h0c.089-.045.179-.088.271-.129a8.289,8.289,0,0,1,1.357-.477q.4-.1.8-.166a.176.176,0,0,0,.032-.006,8.124,8.124,0,0,1,3.717.283,17.317,17.317,0,0,1,4.7,2.782,76.781,76.781,0,0,1,6.869,5.241c1.214,1.119,2.322,2.348,3.627,3.364a28.644,28.644,0,0,0,3.423,2.182q10.6,6.073,21.2,12.143c2.392,1.371,4.786,2.741,7.125,4.192,3.553,2.2,6.978,4.593,10.4,6.98q3.026,2.108,6.049,4.219a6.5,6.5,0,0,1,1.715,1.524,5.372,5.372,0,0,1,.76,2.235A19.7,19.7,0,0,1,649.361,274.7Z" transform="translate(-228.925 -179.537)" fill="#fbbebe"/>
    <path id="Path_415" data-name="Path 415" d="M573.953,251.254c-.848,3.657-4.69,5.868-6.7,9.08-2.5,3.987-1.478,8.621-.541,13.188l-5.14,4.26c-.946.781-1.891,1.565-2.91,2.256a39.242,39.242,0,0,1-4.643,2.565l-4.55,2.252a22.22,22.22,0,0,1-4.454,1.815,17.809,17.809,0,0,1-9.119-.633,4.213,4.213,0,0,1-1-.391,1.6,1.6,0,0,1-.473-.412,2.463,2.463,0,0,1-.3-1.653,75.073,75.073,0,0,1,2.729-14.123,53.961,53.961,0,0,1,2.605-8.189,54.711,54.711,0,0,1,3.666-6.609,44.5,44.5,0,0,1,5.368-7.5,12.107,12.107,0,0,0,2.488-3.086c.756-1.66.464-3.563.618-5.37a10.838,10.838,0,0,1,1.105-3.911v0a11.057,11.057,0,0,1,1.18-1.877l.62,1.387q.2.455.4.908.262.584.52,1.164l1.487,3.329a13.921,13.921,0,0,0,2.258,3.87,4.467,4.467,0,0,0,3.928,1.776,4.406,4.406,0,0,0,3.6-2.332,13.524,13.524,0,0,0,1.538-3.915,12.045,12.045,0,0,0,.17-5.1c-.513-3.262-1.955-6.593-3-9.623a9.416,9.416,0,0,1-.731-3.172,2.1,2.1,0,0,1,.038-.365l.019-.094a8.29,8.29,0,0,1,1.357-.477q.4-.1.8-.166,1.384,7.2,2.771,14.407c.021.113.045.225.066.34.132.688.266,1.377.415,2.063.134.623.279,1.244.441,1.86l.006.018c.055.209.113.416.173.623l0,.006c.164.565.347,1.127.554,1.68C572.572,244.438,574.756,247.793,573.953,251.254Z" transform="translate(-215.238 -179.593)" fill="#6c63ff"/>
    <path id="Path_416" data-name="Path 416" d="M668.318,340.693a4.145,4.145,0,0,0,.413,2.047c.787,1.383,2.674,1.7,4.307,1.826a132.526,132.526,0,0,0,28.61-.838,3.4,3.4,0,0,0,1.456-.435c1.347-.908.517-3.122-.954-3.831s-3.216-.538-4.83-.845a15.534,15.534,0,0,1-4.52-1.886q-4.909-2.713-9.675-5.657c-1.892-1.169-4.124-2.416-6.255-1.723C671.1,331.23,668.28,334.706,668.318,340.693Z" transform="translate(-258.602 -217.637)" fill="#3f3d56"/>
    <path id="Path_417" data-name="Path 417" d="M545.5,235.271v0c-.015.086-.03.17-.049.254-.023.139-.051.281-.079.42-.264,1.3-.588,2.6-.961,3.883-1.022,3.555-2.392,7.052-3.751,10.5q-5.47,13.86-10.942,27.723c-.92,2.327-1.838,4.657-2.884,6.937-.349.76-.709,1.526-1.067,2.3a31.164,31.164,0,0,0-2.922,8.585,17.2,17.2,0,0,0-.13,5.886,6.073,6.073,0,0,0,3.54,4.538c.933.35,2.268.82,2.013,1.752-.138.512-.743.762-1.286.848a5.086,5.086,0,0,1-4.038-1.119c-1.02-.871-1.8-2.225-3.161-2.37a5.5,5.5,0,0,0-2.665.822c-3.51,1.543-7.6.463-11.287-.633.29-1.436,1.789-2.383,3.278-2.67a27.569,27.569,0,0,1,4.548-.123,2.449,2.449,0,0,0,1.382-.342,2.4,2.4,0,0,0,.745-1.225,49.8,49.8,0,0,0,2.175-8.56c.49-3.038.694-6.124,1.393-9.125.543-2.342,1.382-4.61,2.1-6.909a141.585,141.585,0,0,0,3.425-14.374,49.022,49.022,0,0,0,.965-6.1c.121-1.7.064-3.409.234-5.1a38.34,38.34,0,0,1,1.429-6.509q.978-3.482,1.953-6.96c.965-3.432,2-7,4.445-9.664a9.6,9.6,0,0,1,6.788-3.118,6.941,6.941,0,0,1,1.442.15c.079.018.158.037.236.057a5.976,5.976,0,0,1,1.472.586c.754-.461,1.137-.3,1.638.412a4.4,4.4,0,0,1,.6,2.471,32.868,32.868,0,0,1-.579,6.781Z" transform="translate(-206.108 -181.235)" fill="#fbbebe"/>
    <path id="Path_418" data-name="Path 418" d="M562.972,237.858l-.032.031-.173.166-1.713,1.645-.839-3.391-2.878-11.625a6.945,6.945,0,0,1,1.442.15,2.065,2.065,0,0,1,.1-.391l.136.449.976,3.192,1.847,6.06.3,1v0Z" transform="translate(-222.748 -181.105)" fill="#6c63ff"/>
    <path id="Path_419" data-name="Path 419" d="M568.7,183.7a8.038,8.038,0,0,1-2.5,5.792,8.247,8.247,0,0,1-.921.766,8.7,8.7,0,0,1-5.1,1.644H549.955a8.2,8.2,0,1,1,0-16.4h10.219A8.391,8.391,0,0,1,568.7,183.7Z" transform="translate(-217.61 -164.031)" fill="#2f2e41"/>
    <ellipse id="Ellipse_75" data-name="Ellipse 75" cx="8.733" cy="8.4" rx="8.733" ry="8.4" transform="translate(351.939 3.483)" fill="#2f2e41"/>
    <path id="Path_420" data-name="Path 420" d="M595.4,163.234c-.107,0-.213,0-.32.008a8.392,8.392,0,1,1,0,16.785c.106,0,.212.008.32.008a8.407,8.407,0,1,0,0-16.8Z" transform="translate(-234.943 -159.751)" opacity="0.1"/>
    <path id="Path_421" data-name="Path 421" d="M530.027,163.234c.107,0,.213,0,.32.008a8.392,8.392,0,1,0,0,16.785c-.106,0-.212.008-.319.008a8.407,8.407,0,1,1,0-16.8Z" transform="translate(-211.103 -159.751)" opacity="0.1"/>
    <path id="Path_422" data-name="Path 422" d="M566.908,198.159a8.7,8.7,0,0,1-5.1,1.643H551.588a8.7,8.7,0,0,1-5.1-1.644Z" transform="translate(-219.243 -171.936)" opacity="0.1"/>
    <path id="Path_423" data-name="Path 423" d="M674.14,289.765s2.2,6.1,4.216,4.477l-1.606-7.976Z" transform="translate(-260.485 -202.675)" fill="#fbbebe"/>
    <path id="Path_424" data-name="Path 424" d="M1065.491,563.348a14.444,14.444,0,0,0,15.714-4.151,13.138,13.138,0,0,0,1.129-15.638,14.32,14.32,0,0,0-14.967-6.2l.353,6.975-3.431-5.978a13.709,13.709,0,0,0-7.232,7.633,12.853,12.853,0,0,0-.81,3.666,13.544,13.544,0,0,0,9.244,13.694Z" transform="translate(-383.925 -290.173)" fill="#57b894"/>
    <path id="Path_425" data-name="Path 425" d="M1093.733,638c-1.211-5.932,4.037-11.191,9.22-14.609s11.24-6.777,13.009-12.577c2.542-8.337-5.03-15.972-10.922-22.556a81.463,81.463,0,0,1-11.185-15.99,21.47,21.47,0,0,1-2.675-7.271c-.465-3.7.77-7.373,2.013-10.9q6.214-17.614,13.287-34.932" transform="translate(-395.191 -283.932)" fill="none" stroke="#3f3d56" stroke-miterlimit="10" stroke-width="1"/>
    <path id="Path_426" data-name="Path 426" d="M1066.341,560.59a14.444,14.444,0,0,0,15.714-4.151,13.139,13.139,0,0,0,1.129-15.638,14.319,14.319,0,0,0-14.967-6.2l.353,6.975-3.431-5.978a13.709,13.709,0,0,0-7.232,7.633,12.848,12.848,0,0,0-.811,3.666A13.544,13.544,0,0,0,1066.341,560.59Z" transform="translate(-384.2 -289.211)" fill="none" stroke="#3f3d56" stroke-miterlimit="10" stroke-width="1"/>
    <path id="Path_427" data-name="Path 427" d="M1092.046,510.69a13.908,13.908,0,0,1,10.14-8.593l1.16,6.631,2.151-6.964a14.022,14.022,0,0,1,13.271,9.615,13.284,13.284,0,0,1-5.48,15.087,14.539,14.539,0,0,1-16.608-.428,13.241,13.241,0,0,1-4.633-15.347Z" transform="translate(-395.23 -277.858)" fill="#57b894"/>
    <path id="Path_428" data-name="Path 428" d="M1093.186,507.012a13.908,13.908,0,0,1,10.14-8.593l1.16,6.631,2.151-6.964a14.022,14.022,0,0,1,13.271,9.614,13.283,13.283,0,0,1-5.48,15.087,14.538,14.538,0,0,1-16.608-.428,13.241,13.241,0,0,1-4.633-15.347Z" transform="translate(-395.598 -276.575)" fill="none" stroke="#3f3d56" stroke-miterlimit="10" stroke-width="1"/>
    <path id="Path_429" data-name="Path 429" d="M1103.607,611.4a14.316,14.316,0,0,0,17.416-6.7,13.258,13.258,0,0,0-4.948-17.4l-1.652,5.352-1.172-6.709a.254.254,0,0,0-.036-.013,14.246,14.246,0,0,0-18.047,8.117,13.415,13.415,0,0,0,8.439,17.359Z" transform="translate(-396.238 -306.936)" fill="#57b894"/>
    <path id="Path_430" data-name="Path 430" d="M1104.607,607.676a14.316,14.316,0,0,0,17.416-6.7,13.258,13.258,0,0,0-4.947-17.4l-1.652,5.352-1.172-6.709a.248.248,0,0,0-.036-.013,14.247,14.247,0,0,0-18.047,8.117,13.415,13.415,0,0,0,8.439,17.359Z" transform="translate(-396.561 -305.636)" fill="none" stroke="#3f3d56" stroke-miterlimit="10" stroke-width="1"/>
    <path id="Path_431" data-name="Path 431" d="M1086.277,651.537a14.2,14.2,0,0,0,27.541.892,13.389,13.389,0,0,0-7.562-15.439,14.442,14.442,0,0,0-17.264,3.935l6.277,9.087-8.577-4.823A12.933,12.933,0,0,0,1086.277,651.537Z" transform="translate(-393.569 -324.568)" fill="#57b894"/>
    <path id="Path_432" data-name="Path 432" d="M1087.127,648.78a14.2,14.2,0,0,0,27.541.892,13.389,13.389,0,0,0-7.562-15.439,14.442,14.442,0,0,0-17.264,3.935l6.277,9.087-8.576-4.823A12.933,12.933,0,0,0,1087.127,648.78Z" transform="translate(-393.844 -323.606)" fill="none" stroke="#3f3d56" stroke-miterlimit="10" stroke-width="1"/>
    <path id="Path_433" data-name="Path 433" d="M69.152,618.878a9.49,9.49,0,0,0,10.325-2.727,8.632,8.632,0,0,0,.742-10.274,9.408,9.408,0,0,0-9.834-4.074l.232,4.583-2.254-3.927a9.007,9.007,0,0,0-4.752,5.015,8.445,8.445,0,0,0-.532,2.408A8.9,8.9,0,0,0,69.152,618.878Z" transform="translate(-63.054 -312.692)" fill="#57b894"/>
    <path id="Path_434" data-name="Path 434" d="M87.705,667.929c-.8-3.9,2.652-7.352,6.058-9.6s7.385-4.452,8.547-8.264c1.67-5.477-3.3-10.494-7.176-14.82a53.523,53.523,0,0,1-7.349-10.505,14.1,14.1,0,0,1-1.758-4.777c-.305-2.428.506-4.844,1.323-7.16q4.082-11.573,8.73-22.951" transform="translate(-70.455 -308.592)" fill="none" stroke="#3f3d56" stroke-miterlimit="10" stroke-width="1"/>
    <path id="Path_435" data-name="Path 435" d="M69.715,617.066a9.49,9.49,0,0,0,10.325-2.728,8.632,8.632,0,0,0,.742-10.274,9.408,9.408,0,0,0-9.834-4.074l.232,4.583-2.254-3.927a9.007,9.007,0,0,0-4.752,5.015,8.446,8.446,0,0,0-.532,2.409,8.9,8.9,0,0,0,6.074,9Z" transform="translate(-63.236 -312.06)" fill="none" stroke="#3f3d56" stroke-miterlimit="10" stroke-width="1"/>
    <path id="Path_436" data-name="Path 436" d="M86.6,584.28a9.138,9.138,0,0,1,6.662-5.646l.762,4.357,1.413-4.576a9.213,9.213,0,0,1,8.719,6.317,8.728,8.728,0,0,1-3.6,9.912,9.552,9.552,0,0,1-10.912-.281A8.7,8.7,0,0,1,86.6,584.28Z" transform="translate(-70.482 -304.601)" fill="#57b894"/>
    <path id="Path_437" data-name="Path 437" d="M87.352,581.865a9.138,9.138,0,0,1,6.662-5.646l.762,4.357L96.19,576a9.213,9.213,0,0,1,8.719,6.317,8.728,8.728,0,0,1-3.6,9.912,9.552,9.552,0,0,1-10.912-.281,8.7,8.7,0,0,1-3.044-10.083Z" transform="translate(-70.725 -303.758)" fill="none" stroke="#3f3d56" stroke-miterlimit="10" stroke-width="1"/>
    <path id="Path_438" data-name="Path 438" d="M94.2,650.45a9.406,9.406,0,0,0,11.442-4.4,8.711,8.711,0,0,0-3.25-11.435l-1.086,3.516-.77-4.408-.024-.009a9.36,9.36,0,0,0-11.857,5.333A8.814,8.814,0,0,0,94.2,650.45Z" transform="translate(-71.145 -323.706)" fill="#57b894"/>
    <path id="Path_439" data-name="Path 439" d="M94.85,648a9.406,9.406,0,0,0,11.442-4.4,8.711,8.711,0,0,0-3.25-11.435l-1.086,3.516-.77-4.408-.024-.009A9.36,9.36,0,0,0,89.305,636.6,8.814,8.814,0,0,0,94.85,648Z" transform="translate(-71.355 -322.852)" fill="none" stroke="#3f3d56" stroke-miterlimit="10" stroke-width="1"/>
    <path id="Path_440" data-name="Path 440" d="M82.808,676.82a9.332,9.332,0,0,0,18.095.586,8.8,8.8,0,0,0-4.968-10.143,9.488,9.488,0,0,0-11.343,2.585l4.124,5.971-5.635-3.169a8.5,8.5,0,0,0-.273,4.17Z" transform="translate(-69.39 -335.291)" fill="#57b894"/>
    <path id="Path_441" data-name="Path 441" d="M83.371,675.008a9.332,9.332,0,0,0,18.095.586A8.8,8.8,0,0,0,96.5,665.451a9.488,9.488,0,0,0-11.343,2.585l4.124,5.971-5.635-3.169A8.5,8.5,0,0,0,83.371,675.008Z" transform="translate(-69.572 -334.658)" fill="none" stroke="#3f3d56" stroke-miterlimit="10" stroke-width="1"/>
    <ellipse id="Ellipse_76" data-name="Ellipse 76" cx="11.508" cy="14.325" rx="11.508" ry="14.325" transform="translate(314.053 193.457)" fill="#2f2e41"/>
    <ellipse id="Ellipse_77" data-name="Ellipse 77" cx="11.508" cy="14.325" rx="11.508" ry="14.325" transform="translate(376.668 193.783)" fill="#2f2e41"/>
    <path id="Path_442" data-name="Path 442" d="M603.469,536.22c0,6.472-9.4,11.72-20.984,11.72S561.5,542.692,561.5,536.22c0-5.606,7.047-10.294,16.463-11.44a35.253,35.253,0,0,1,4.522-.28,35.624,35.624,0,0,1,7.534.781C597.884,526.968,603.469,531.232,603.469,536.22Z" transform="translate(-224.093 -285.791)" fill="#2f2e41"/>
    <ellipse id="Ellipse_78" data-name="Ellipse 78" cx="11.508" cy="14.325" rx="11.508" ry="14.325" transform="translate(316.761 190.201)" fill="none" stroke="#3f3d56" stroke-miterlimit="10" stroke-width="1"/>
    <ellipse id="Ellipse_79" data-name="Ellipse 79" cx="11.508" cy="14.325" rx="11.508" ry="14.325" transform="translate(379.376 190.527)" fill="none" stroke="#3f3d56" stroke-miterlimit="10" stroke-width="1"/>
    <ellipse id="Ellipse_80" data-name="Ellipse 80" cx="20.984" cy="11.72" rx="20.984" ry="11.72" transform="translate(340.115 235.454)" fill="none" stroke="#3f3d56" stroke-miterlimit="10" stroke-width="1"/>
    <path id="Path_443" data-name="Path 443" d="M597.861,526.083a3.147,3.147,0,0,1-.894,2.209,2.991,2.991,0,0,1-2.153.917h-6.769a3.131,3.131,0,0,1-2.491-4.91,33.069,33.069,0,0,1,4.522-.3,33.485,33.485,0,0,1,7.534.833A3.19,3.19,0,0,1,597.861,526.083Z" transform="translate(-231.685 -285.616)" fill="#fff"/>
    <ellipse id="Ellipse_81" data-name="Ellipse 81" cx="3.385" cy="3.256" rx="3.385" ry="3.256" transform="translate(324.884 197.364)" fill="#fff"/>
    <ellipse id="Ellipse_82" data-name="Ellipse 82" cx="3.385" cy="3.256" rx="3.385" ry="3.256" transform="translate(387.837 197.364)" fill="#fff"/>
    <ellipse id="Ellipse_83" data-name="Ellipse 83" cx="3.385" cy="3.256" rx="3.385" ry="3.256" transform="translate(391.222 227.966)" fill="#6c63ff" opacity="0.3"/>
    <ellipse id="Ellipse_84" data-name="Ellipse 84" cx="3.385" cy="3.256" rx="3.385" ry="3.256" transform="translate(308.638 227.966)" fill="#6c63ff" opacity="0.3"/>
  </g>
</svg>
